<?xml version="1.0" encoding="UTF-8"?>
<svg xmlns="http://www.w3.org/2000/svg" xmlns:xlink="http://www.w3.org/1999/xlink" width="257.8pt" height="89.7pt" viewBox="0 0 257.8 89.7" version="1.1">
<defs>
<clipPath id="clip1">
  <path d="M 0 0 L 257.800781 0 L 257.800781 68 L 0 68 Z M 0 0 "/>
</clipPath>
<clipPath id="clip2">
  <path d="M 0 45 L 257.800781 45 L 257.800781 89.699219 L 0 89.699219 Z M 0 45 "/>
</clipPath>
</defs>
<g id="surface1">
<g clip-path="url(#clip1)" clip-rule="nonzero">
<path style=" stroke:none;fill-rule:evenodd;fill:rgb(19.213867%,17.651367%,62.693787%);fill-opacity:1;" d="M 0.00390625 -0.0625 L 0.00390625 66.226563 C 66.816406 58.566406 82.964844 69.523438 133.921875 66.941406 C 178.109375 64.699219 215.917969 42.25 257.777344 45.476563 L 257.777344 -0.0625 Z M 0.00390625 -0.0625 "/>
</g>
<g clip-path="url(#clip2)" clip-rule="nonzero">
<path style=" stroke:none;fill-rule:evenodd;fill:rgb(95.3125%,7.835388%,1.177979%);fill-opacity:1;" d="M 257.886719 45.476563 L 257.886719 49.53125 C 218.40625 46.226563 176.847656 82.273438 142.460938 84.695313 C 97.796875 87.839844 53.003906 70.308594 0.113281 89.621094 L 0.113281 66.226563 C 63.5 49.617188 83.074219 69.523438 134.03125 66.941406 C 178.21875 64.699219 216.027344 42.25 257.886719 45.476563 Z M 257.886719 45.476563 "/>
</g>
<path style=" stroke:none;fill-rule:evenodd;fill:rgb(100%,100%,100%);fill-opacity:1;" d="M 21.214844 42.542969 L 23.820313 42.542969 L 29.058594 21.730469 L 25.6875 21.730469 L 24.320313 25.773438 L 17.1875 25.773438 L 20.554688 13.542969 L 53.59375 13.542969 L 50.222656 25.773438 L 42.695313 25.773438 L 43.640625 21.71875 L 40.429688 21.71875 L 35.589844 42.933594 L 38.640625 42.933594 L 36.324219 49.644531 L 18.609375 49.644531 Z M 21.214844 42.542969 "/>
<path style=" stroke:none;fill-rule:evenodd;fill:rgb(100%,100%,100%);fill-opacity:1;" d="M 56.515625 13.910156 L 54.398438 21.71875 L 56.871094 21.71875 L 60.109375 49.617188 L 71.375 49.617188 L 87.40625 21.71875 L 89.25 21.71875 L 92.433594 14.105469 L 74.625 14.007813 L 72.414063 21.71875 L 74.59375 21.71875 L 69.132813 34.535156 L 68.230469 21.710938 L 70.074219 21.710938 L 72.347656 13.910156 Z M 56.515625 13.910156 "/>
<path style=" stroke:none;fill-rule:evenodd;fill:rgb(100%,100%,100%);fill-opacity:1;" d="M 125.042969 14.886719 L 122.105469 26.964844 L 114.25 26.964844 C 114.25 26.964844 114.105469 20.855469 106.160156 22.164063 C 103.902344 22.804688 102.867188 25.429688 108.363281 26.574219 C 110.921875 27.074219 118.882813 28.621094 118.882813 37 C 118.976563 38.265625 118.355469 49.480469 104.035156 49.480469 C 102.390625 49.589844 96.230469 49.265625 93.863281 46.773438 C 93.386719 48.203125 92.871094 49.480469 92.871094 49.480469 L 84.574219 49.480469 L 87.605469 36.902344 L 95.714844 36.902344 C 95.714844 36.902344 98.617188 43.566406 104.191406 40.90625 C 105.757813 39.96875 106.304688 38.167969 104.035156 37.488281 C 102.390625 37 90.449219 35.546875 90.449219 27.507813 C 90.453125 25.773438 89.882813 14.300781 105.992188 14.300781 C 108.171875 14.300781 113.382813 15.058594 116.132813 16.734375 C 116.488281 15.4375 116.648438 14.902344 116.648438 14.902344 Z M 125.042969 14.886719 "/>
<path style=" stroke:none;fill-rule:evenodd;fill:rgb(89.0625%,0%,8.616638%);fill-opacity:1;" d="M 170.464844 25.390625 C 170.464844 25.390625 163.746094 39.429688 145.378906 37.09375 C 140.957031 36.648438 140.445313 36.648438 140.445313 36.648438 L 138.421875 38.0625 C 138.421875 38.0625 144.492188 41.023438 150.769531 41.023438 C 157.046875 41.023438 164.371094 39.488281 167.207031 38.292969 C 169.699219 39.339844 173.78125 41.285156 179.90625 39.191406 C 182.058594 39.339844 193.113281 42.484375 200.0625 40.015625 C 201.675781 41.285156 207.53125 40.144531 210.746094 38.144531 C 212.902344 36.796875 213.128906 37.09375 213.128906 37.09375 C 213.128906 37.09375 220.246094 34.886719 231.824219 40.183594 C 232.632813 42.484375 232.632813 42.484375 232.632813 42.484375 L 231.316406 43.378906 L 240.34375 43.378906 L 240.34375 40.988281 C 240.34375 40.988281 211.882813 29.574219 211.429688 29.574219 C 210.746094 28.566406 209.160156 26.472656 211.085938 24.226563 C 211.796875 23.328125 214.347656 21.53125 217.28125 26.917969 C 218.570313 27.96875 220.089844 28.902344 220.089844 28.902344 C 220.089844 28.902344 222.765625 28.304688 223.152344 26.917969 C 222.652344 25.535156 217.664063 17.492188 217.664063 17.492188 L 216.898438 11.65625 L 214.941406 14.929688 C 214.941406 14.929688 212.421875 11.253906 207.574219 14.425781 C 205.671875 15.546875 196.707031 26.058594 189.996094 26.917969 C 180.554688 27.496094 175.386719 17.933594 170.464844 25.390625 Z M 170.464844 25.390625 "/>
<path style=" stroke:none;fill-rule:evenodd;fill:rgb(89.0625%,0%,8.616638%);fill-opacity:1;" d="M 147.804688 19.136719 C 147.804688 19.136719 149.800781 17.789063 152.257813 19.363281 C 156.214844 21.382813 157.285156 26.546875 161.027344 26.320313 C 165.328125 25.582031 167.488281 24.636719 172.84375 20.589844 C 170.632813 20.59375 159.578125 20.605469 159.578125 20.605469 C 159.578125 20.605469 156.484375 16.816406 153.203125 16.21875 C 151.152344 15.953125 148.863281 18.160156 147.804688 19.136719 Z M 147.804688 19.136719 "/>
<path style=" stroke:none;fill-rule:evenodd;fill:rgb(89.0625%,0%,8.616638%);fill-opacity:1;" d="M 214.875 10.757813 C 214.875 10.757813 214.75 6.34375 208.554688 6.34375 C 207.3125 6.34375 203.886719 6.738281 197.035156 12.597656 C 195.722656 13.871094 193.113281 15.84375 193.113281 15.84375 L 196.089844 15.289063 C 196.089844 15.289063 195.941406 19.316406 186.792969 23.5625 C 186.792969 24.140625 186.839844 24.300781 186.839844 24.300781 C 186.839844 24.300781 191.257813 27.050781 204.144531 13.910156 C 205.355469 12.730469 209.378906 9.351563 214.875 10.757813 Z M 214.875 10.757813 "/>
</g>
</svg>
